<svg width="68" height="96" viewBox="0 0 68 96" fill="none" xmlns="http://www.w3.org/2000/svg">
<path d="M1.99585 12C1.99585 8.22876 1.99585 6.34315 3.16497 5.17157C4.3341 4 6.21578 4 9.97914 4H13.9708C17.7341 4 19.6158 4 20.7849 5.17157C21.9541 6.34315 21.9541 8.22876 21.9541 12C21.9541 15.7712 21.9541 17.6569 20.7849 18.8284C19.6158 20 17.7341 20 13.9708 20H9.97914C6.21578 20 4.3341 20 3.16497 18.8284C1.99585 17.6569 1.99585 15.7712 1.99585 12Z" stroke="#FDEEDC" stroke-width="1.5"/>
<path d="M5.98749 8L8.14187 9.79908C9.97467 11.3296 10.8911 12.0949 11.975 12.0949C13.0588 12.0949 13.9752 11.3296 15.808 9.79908L17.9624 8" stroke="#FDEEDC" stroke-width="1.5" stroke-linecap="round"/>
<path d="M53.9665 5.31617L54.6142 6.4791C55.1986 7.52858 54.964 8.90533 54.0435 9.8278C54.0435 9.8278 52.9269 10.9467 54.9514 12.9755C56.9758 15.0042 58.0925 13.8853 58.0925 13.8853C59.013 12.9628 60.3869 12.7277 61.4342 13.3134L62.5947 13.9624C64.1761 14.8468 64.3629 17.0692 62.9728 18.4622C62.1376 19.2992 61.1144 19.9505 59.9832 19.9934C58.0791 20.0658 54.8454 19.5829 51.6016 16.3323C48.3578 13.0817 47.8759 9.84122 47.9481 7.93309C47.9909 6.7996 48.6409 5.77423 49.4761 4.93723C50.8662 3.54428 53.0839 3.73144 53.9665 5.31617Z" stroke="#FDEEDC" stroke-width="1.5" stroke-linecap="round"/>
<path d="M2.93413 43.2446C2.97895 42.2226 3.1323 41.5635 3.3397 41.004L3.34249 40.9963C3.548 40.427 3.86995 39.9112 4.28592 39.4849L4.29176 39.4789L4.29749 39.4728C4.70637 39.0382 5.20081 38.7026 5.74595 38.4887L5.75536 38.4849C6.29031 38.2679 6.92075 38.1084 7.90098 38.0617M2.93413 43.2446C2.88701 44.3366 2.875 44.6751 2.875 47.5063C2.875 50.3381 2.88635 50.6758 2.9341 51.768M2.93413 43.2446L2.93413 43.5201M3.34334 54.0168C3.54831 54.5856 3.86994 55.1015 4.28645 55.5282L4.29228 55.5342L4.298 55.5402C4.70656 55.9743 5.20084 56.3103 5.74647 56.5247L5.75461 56.5279C6.29006 56.7446 6.9208 56.9041 7.90098 56.9509M3.34334 54.0168L3.33974 54.0069C3.1317 53.4487 2.97892 52.7909 2.9341 51.768M3.34334 54.0168L3.33105 53.9492M2.9341 51.768L2.95015 51.8562M2.9341 51.768L2.9341 51.4919M3.33105 53.9492L2.95015 51.8562M3.33105 53.9492C3.16928 53.5033 3.0027 52.881 2.95015 51.8562M3.33105 53.9492C3.33672 53.9649 3.34239 53.9803 3.34805 53.9955C3.55321 54.5726 3.87827 55.0952 4.29987 55.5256C4.71224 55.9655 5.21283 56.3046 5.76571 56.5187C6.2094 56.699 6.8346 56.8875 7.90083 56.9385C8.97683 56.9896 9.30927 57 11.9852 57C14.6611 57 14.9938 56.9896 16.0698 56.9385C17.1373 56.8874 17.7618 56.6979 18.2039 56.519C18.7571 56.305 19.258 55.9657 19.6705 55.5256C20.092 55.0953 20.4169 54.573 20.6221 53.9961C20.7949 53.5331 20.9755 52.8808 21.0244 51.7682C21.0733 50.6454 21.0833 50.2978 21.0833 47.5063C21.0833 44.7147 21.0733 44.3668 21.0244 43.244C20.9752 42.1243 20.7919 41.4717 20.6196 41.0099C20.3944 40.4032 20.1088 39.9444 19.6698 39.4863C19.2317 39.03 18.7931 38.7318 18.2113 38.4965C17.7672 38.3154 17.1413 38.1253 16.0698 38.0741C15.9766 38.0696 15.889 38.0655 15.805 38.0617M2.95015 51.8562C2.94867 51.8273 2.94728 51.7981 2.94598 51.7685C2.94173 51.6712 2.93778 51.5797 2.9341 51.4919M7.90098 38.0617C8.94768 38.0118 9.27195 38 11.9852 38C14.6984 38 15.0225 38.0125 16.0689 38.0617M7.90098 38.0617L8.16562 38.0617M16.0689 38.0617L15.805 38.0617M16.0689 38.0617C17.0485 38.1084 17.6803 38.2684 18.2165 38.4849L18.2239 38.4878C18.7695 38.7023 19.2638 39.0382 19.6723 39.4723L19.678 39.4783L19.6838 39.4842C20.0998 39.9106 20.4217 40.4265 20.6271 40.996L20.6306 41.0056C20.8386 41.5638 20.9914 42.2217 21.0362 43.2445M8.16562 38.0617L15.805 38.0617M8.16562 38.0617C9.05194 38.0212 9.54183 38.0125 11.9852 38.0125C14.4287 38.0125 14.9185 38.0212 15.805 38.0617M8.16562 38.0617C8.0815 38.0655 7.99381 38.0696 7.90055 38.0741C6.83298 38.1251 6.20852 38.3146 5.7664 38.4936C5.21113 38.7084 4.70859 39.0494 4.29521 39.4919C3.86029 39.9476 3.57561 40.4042 3.35089 41.0094C3.17725 41.4728 2.99508 42.1261 2.94597 43.2443C2.94173 43.3414 2.93779 43.4326 2.93413 43.5201M21.0362 51.768C20.9914 52.7908 20.8386 53.449 20.631 54.0077L20.6279 54.0162C20.4223 54.5856 20.1004 55.1013 19.6844 55.5276L19.6786 55.5336L19.6728 55.5397C19.264 55.9743 18.7695 56.3099 18.2244 56.5238L18.215 56.5276C17.68 56.7447 17.0496 56.9041 16.0694 56.9509M2.9341 51.4919C2.89535 50.567 2.88701 50.0558 2.88701 47.5063C2.88701 44.9559 2.89534 44.4454 2.93413 43.5201M2.9341 51.4919L2.93413 43.5201M10.3649 51.5881C10.8786 51.8101 11.4292 51.9244 11.9852 51.9244C13.1081 51.9244 14.1851 51.4589 14.9791 50.6304C15.7732 49.8018 16.2192 48.678 16.2192 47.5063C16.2192 46.3345 15.7732 45.2107 14.9791 44.3822C14.1851 43.5536 13.1081 43.0881 11.9852 43.0881C11.4291 43.0881 10.8786 43.2024 10.3649 43.4244C9.85117 43.6465 9.38441 43.9719 8.99124 44.3822C8.59807 44.7924 8.28619 45.2795 8.07341 45.8155C7.86062 46.3515 7.75111 46.9261 7.75111 47.5063C7.75111 48.0865 7.86062 48.661 8.07341 49.197C8.28619 49.7331 8.59807 50.2201 8.99124 50.6304C9.38441 51.0406 9.85117 51.3661 10.3649 51.5881ZM8.9818 44.3723C9.77835 43.5411 10.8587 43.0742 11.9852 43.0742C13.1117 43.0742 14.192 43.5411 14.9885 44.3723C15.7851 45.2035 16.2326 46.3308 16.2326 47.5063C16.2326 48.6817 15.7851 49.809 14.9885 50.6402C14.192 51.4714 13.1117 51.9383 11.9852 51.9383C10.8587 51.9383 9.77835 51.4714 8.9818 50.6402C8.18526 49.809 7.73777 48.6817 7.73777 47.5063C7.73777 46.3308 8.18526 45.2035 8.9818 44.3723ZM18.6243 42.0423C18.6243 42.3787 18.4962 42.7014 18.2682 42.9393C18.0402 43.1772 17.731 43.3108 17.4086 43.3108C17.0862 43.3108 16.777 43.1772 16.549 42.9393C16.321 42.7014 16.1929 42.3787 16.1929 42.0423C16.1929 41.7059 16.321 41.3832 16.549 41.1453C16.777 40.9074 17.0862 40.7737 17.4086 40.7737C17.731 40.7737 18.0402 40.9074 18.2682 41.1453C18.4962 41.3832 18.6243 41.7059 18.6243 42.0423Z" stroke="#FDEEDC" stroke-width="1.5" stroke-linejoin="round"/>
<path fill-rule="evenodd" clip-rule="evenodd" d="M63.5949 40.46C64.5421 40.7135 65.2865 41.4579 65.54 42.405C65.9982 44.12 66 47.7004 66 47.7004C66 47.7004 66 51.2807 65.54 52.9957C65.2865 53.9429 64.5421 54.6872 63.5949 54.9407C61.88 55.4007 55 55.4007 55 55.4007C55 55.4007 48.12 55.4007 46.405 54.9407C45.4579 54.6872 44.7135 53.9429 44.46 52.9957C44 51.2807 44 47.7004 44 47.7004C44 47.7004 44 44.12 44.46 42.405C44.7135 41.4579 45.4579 40.7135 46.405 40.46C48.12 40 55 40 55 40C55 40 61.88 40 63.5949 40.46ZM58.5134 47.7007L52.7979 51.0003V44.401L58.5134 47.7007Z" stroke="#FDEEDC" stroke-width="1.5" stroke-linejoin="round"/>
<path d="M21.4167 82.3333C21.5167 82.9417 21.575 83.5667 21.575 84.225C21.575 87.2667 20.4917 89.8333 18.6083 91.575C16.9583 93.1 14.7 94 12 94C8.09167 94 4.71667 91.75 3.075 88.4833C2.39167 87.1333 2 85.6167 2 84C2 82.3833 2.39167 80.8667 3.075 79.5167C4.71667 76.25 8.09167 74 12 74C14.7 74 16.9583 74.9917 18.6833 76.6083L15.8333 79.4583C14.7917 78.4667 13.475 77.9583 12 77.9583C9.39167 77.9583 7.18333 79.7167 6.39167 82.0917C6.19167 82.6917 6.075 83.3333 6.075 84C6.075 84.6667 6.18333 85.3083 6.39167 85.9083C7.18333 88.2833 9.39167 90.0417 12 90.0417C13.35 90.0417 14.4917 89.675 15.3917 89.075C16.4417 88.3667 17.15 87.325 17.3917 86.0917H12V82.3333H21.4167Z" stroke="#FDEEDC" stroke-width="1.5" stroke-linejoin="round"/>
<path d="M61.4286 94H58.0544C55.0193 94 52.7576 92.4522 52.7576 88.7505V82.8218H50V79.6109C53.0346 78.8305 54.3042 76.2422 54.4501 74H57.6011V79.0906H61.2784V82.8218H57.6016V87.9842C57.6016 89.5314 58.3897 90.0664 59.6441 90.0664H61.4242L61.4286 94Z" stroke="#FDEEDC" stroke-width="1.5" stroke-linecap="square" stroke-linejoin="round"/>
</svg>
