<svg width="223" height="20" viewBox="0 0 223 20" fill="none" xmlns="http://www.w3.org/2000/svg">
<path d="M19.2483 10.8335L199 10.9826" stroke="url(#paint0_linear_1042_1197)" stroke-opacity="0.2" stroke-width="3" stroke-linecap="round"/>
<path d="M19 9.5C18.1716 9.5 17.5 10.1716 17.5 11C17.5 11.8284 18.1716 12.5 19 12.5V9.5ZM117.66 11L109 2.33975L100.34 11L109 19.6603L117.66 11ZM19 11V12.5H109V11V9.5H19V11Z" fill="#2CDF03"/>
<path d="M207.2 15.126C206.071 15.126 205.212 14.692 204.624 13.824C204.036 12.956 203.742 11.7007 203.742 10.058C203.742 8.95667 203.873 8.03267 204.134 7.286C204.395 6.53 204.783 5.96067 205.296 5.578C205.819 5.19533 206.453 5.004 207.2 5.004C208.339 5.004 209.197 5.43333 209.776 6.292C210.364 7.14133 210.658 8.392 210.658 10.044C210.658 11.1453 210.527 12.074 210.266 12.83C210.005 13.586 209.617 14.16 209.104 14.552C208.591 14.9347 207.956 15.126 207.2 15.126ZM207.2 14.132C207.984 14.132 208.563 13.8007 208.936 13.138C209.319 12.466 209.51 11.4347 209.51 10.044C209.51 8.644 209.319 7.622 208.936 6.978C208.563 6.32467 207.984 5.998 207.2 5.998C206.425 5.998 205.847 6.32467 205.464 6.978C205.081 7.63133 204.89 8.65333 204.89 10.044C204.89 11.4347 205.081 12.466 205.464 13.138C205.847 13.8007 206.425 14.132 207.2 14.132ZM217.247 15.098C217.069 15.098 216.929 15.0467 216.827 14.944C216.724 14.8413 216.673 14.6967 216.673 14.51V12.886H212.655C212.468 12.886 212.319 12.844 212.207 12.76C212.104 12.6667 212.053 12.536 212.053 12.368C212.053 12.2653 212.076 12.1627 212.123 12.06C212.169 11.948 212.253 11.808 212.375 11.64L216.645 5.424C216.729 5.29333 216.822 5.19533 216.925 5.13C217.027 5.06467 217.149 5.032 217.289 5.032C217.438 5.032 217.564 5.07867 217.667 5.172C217.779 5.26533 217.835 5.41467 217.835 5.62V11.906H218.857C219.034 11.906 219.169 11.948 219.263 12.032C219.356 12.116 219.403 12.2373 219.403 12.396C219.403 12.5547 219.356 12.676 219.263 12.76C219.169 12.844 219.034 12.886 218.857 12.886H217.835V14.51C217.835 14.6967 217.783 14.8413 217.681 14.944C217.578 15.0467 217.433 15.098 217.247 15.098ZM216.673 11.906V6.474H217.009L213.089 12.214V11.906H216.673Z" fill="#20AF00"/>
<path d="M4.2 15.126C3.07067 15.126 2.212 14.692 1.624 13.824C1.036 12.956 0.742 11.7007 0.742 10.058C0.742 8.95667 0.872667 8.03267 1.134 7.286C1.39533 6.53 1.78267 5.96067 2.296 5.578C2.81867 5.19533 3.45333 5.004 4.2 5.004C5.33867 5.004 6.19733 5.43333 6.776 6.292C7.364 7.14133 7.658 8.392 7.658 10.044C7.658 11.1453 7.52733 12.074 7.266 12.83C7.00467 13.586 6.61733 14.16 6.104 14.552C5.59067 14.9347 4.956 15.126 4.2 15.126ZM4.2 14.132C4.984 14.132 5.56267 13.8007 5.936 13.138C6.31867 12.466 6.51 11.4347 6.51 10.044C6.51 8.644 6.31867 7.622 5.936 6.978C5.56267 6.32467 4.984 5.998 4.2 5.998C3.42533 5.998 2.84667 6.32467 2.464 6.978C2.08133 7.63133 1.89 8.65333 1.89 10.044C1.89 11.4347 2.08133 12.466 2.464 13.138C2.84667 13.8007 3.42533 14.132 4.2 14.132ZM10.5645 15C10.3965 15 10.2659 14.958 10.1725 14.874C10.0792 14.7807 10.0325 14.6547 10.0325 14.496C10.0325 14.3373 10.0792 14.2207 10.1725 14.146C10.2659 14.062 10.3965 14.02 10.5645 14.02H12.3845V6.082H12.9865L10.9565 7.426C10.8352 7.49133 10.7185 7.51933 10.6065 7.51C10.5039 7.50067 10.4152 7.46333 10.3405 7.398C10.2752 7.32333 10.2285 7.23933 10.2005 7.146C10.1725 7.04333 10.1772 6.94067 10.2145 6.838C10.2519 6.726 10.3312 6.63267 10.4525 6.558L12.3845 5.284C12.5059 5.20933 12.6225 5.14867 12.7345 5.102C12.8465 5.05533 12.9585 5.032 13.0705 5.032C13.2012 5.032 13.3085 5.074 13.3925 5.158C13.4859 5.23267 13.5325 5.354 13.5325 5.522V14.02H15.2125C15.3805 14.02 15.5112 14.062 15.6045 14.146C15.6979 14.2207 15.7445 14.3373 15.7445 14.496C15.7445 14.664 15.6979 14.79 15.6045 14.874C15.5112 14.958 15.3805 15 15.2125 15H10.5645Z" fill="#20AF00"/>
<defs>
<linearGradient id="paint0_linear_1042_1197" x1="19.2479" y1="11.3335" x2="199" y2="11.4826" gradientUnits="userSpaceOnUse">
<stop stop-color="#01FF1B"/>
<stop offset="1" stop-color="#AD640A"/>
</linearGradient>
</defs>
</svg>
