<svg width="750" height="750" viewBox="0 0 750 750" fill="none" xmlns="http://www.w3.org/2000/svg">
<g clip-path="url(#clip0_974_852)">
<path d="M198.996 243.687C202.033 240.615 206.008 238.174 210.956 236.534C215.733 235.183 220.238 235.497 225.033 237.828L225.033 237.827C226.206 238.419 227.378 239.123 228.559 239.954L228.586 239.973C234.062 243.761 239.117 249.765 243.681 256.561C247.652 262.474 251.105 268.759 254.065 274.315L255.304 276.649L255.308 276.657C255.803 277.587 256.315 278.545 256.841 279.529L256.86 279.565L256.879 279.599L260.872 286.781C263.588 291.68 266.553 297.029 269.732 302.617L277.403 300.279C275.138 269.944 273.998 229.268 286.573 197.444L286.578 197.431L286.584 197.417C289.114 190.883 295.584 181.002 305.022 176.856L305.07 176.834L305.115 176.812C309.767 174.628 314.708 174.043 319.684 175.003C328.202 176.883 334.74 181.331 338.694 188.203L338.7 188.214L338.706 188.225C342.436 194.615 344.376 203.633 343.791 214.832C343.166 226.404 343.229 253.956 345.519 283.341C346.356 295.705 347.877 307.029 349.425 317.268L351.307 329.718L357.131 318.554C362.866 307.562 372.021 296.428 384.251 287.983L385.445 287.174L385.445 287.173C390.459 283.835 396.676 280.561 404.092 278.128L404.134 278.116L404.175 278.101C413.977 274.651 425.974 272.621 440.063 274.091L441.433 274.244L445.376 274.716L445.982 270.791C447.472 261.142 452.817 253.913 460.402 250.381C461.465 249.904 462.862 249.39 464.575 248.989L464.662 248.969L464.749 248.944C469.705 247.553 477.121 247.02 487.343 251.408L487.352 251.411L487.36 251.415C498.064 255.954 509.234 264.965 519.869 278.607L519.932 278.687L519.998 278.765C532.268 292.99 549.412 315.457 562.287 343.537L562.291 343.547L562.295 343.555C576.428 373.994 582.057 403.1 579.578 430.754C576.348 464.124 561.054 494.871 533.564 522.126L533.541 522.15L532.575 523.099C527.705 527.844 522.196 532.608 516.479 537.245L516.48 537.245L515.714 537.858L515.708 537.863L514.67 538.688C504.272 546.887 493.505 553.515 482.385 558.593L481.272 559.096L481.267 559.098L479.945 559.682C423.987 584.095 365.805 566.941 314.715 536.747C266.486 508.243 225.375 468.574 199.719 443.124L194.796 438.232L194.441 437.878L194.441 437.877L193.274 436.71C192.885 436.319 192.497 435.926 192.109 435.531L192.081 435.503C181.533 424.968 173.357 414.997 167.497 405.879L166.938 404.999L166.932 404.99C161.198 395.941 157.777 387.856 156.447 380.703C154.473 369.521 156.88 360.456 163.743 352.985C164.063 352.648 164.391 352.319 164.727 351.999L164.77 351.957L164.812 351.914C169.669 346.99 176.592 344.016 183.354 343.859L184.007 343.852C192.549 343.884 200.997 348.155 209.198 357.132L209.206 357.14L209.213 357.148C214.23 362.583 220.745 369.529 228.567 377.418L235.021 372.432C213.174 335.523 199.03 304.24 192.578 279.817C188.208 260.396 192.742 249.767 198.937 243.746L198.967 243.717L198.996 243.687ZM463.96 334.215C444.455 326.388 422.357 332.364 409.423 348.128L409.32 348.254L409.226 348.389C407.99 350.165 406.874 352.083 405.905 354.149L405.499 355.044C399.916 367.653 399.167 378.4 401.094 387.483C403.009 396.505 407.491 403.533 411.791 408.858L411.804 408.874L411.817 408.89C417.8 416.154 429.873 423.332 443.641 425.152L443.857 425.181L444.076 425.187C449.955 425.334 455.955 424.425 461.819 422.457L462.99 422.05C475.64 417.488 486.057 408.459 491.457 396.987L491.458 396.987C496.574 386.292 498.895 376.084 498.1 366.143C497.302 356.182 493.402 346.838 486.646 337.847L484.932 335.565L482.196 336.375C475.982 338.213 469.435 336.804 465.076 334.684L464.983 334.638L464.888 334.598L463.96 334.215Z" stroke="#E2FFEC" stroke-width="8.21856"/>
</g>
<defs>
<clipPath id="clip0_974_852">
<rect width="529.809" height="529.809" fill="white" transform="translate(0 373.029) rotate(-44.7554)"/>
</clipPath>
</defs>
</svg>
