<svg width="399" height="500" viewBox="0 0 399 500" fill="none" xmlns="http://www.w3.org/2000/svg">
<path d="M163.282 4.94336C168.257 4.89332 173.472 6.12244 178.815 8.78027C183.832 11.5573 187.281 15.4932 189.314 21.2998H189.315C189.793 22.732 190.18 24.2524 190.47 25.8809L190.476 25.9141C191.872 33.3976 191.139 42.3019 189.392 51.4014C187.87 59.324 185.637 67.128 183.593 73.9375L182.731 76.792L182.729 76.8018C182.387 77.9405 182.034 79.1143 181.674 80.3213L181.652 80.3975C181.261 81.8059 180.854 83.2557 180.436 84.7451L179.145 89.3291C177.428 95.4148 175.555 102.057 173.663 109.059L180.756 112.798C203.046 86.6861 234.527 53.0885 270.02 37.5215L270.045 37.5098C277.335 34.2516 290.529 31.4243 301.571 35.6709L301.619 35.6895L301.668 35.7061C307.246 37.6924 311.767 41.2265 315.055 46.0518C320.283 54.1691 322.084 62.7849 320.069 71.3262L319.859 72.166L319.856 72.1787C317.8 80.138 312.4 88.698 303.497 97.0059L302.624 97.8086C292.945 106.573 271.118 128.687 249.615 154.044C240.474 164.603 232.704 174.874 225.812 184.306L218.382 194.472L230.378 190.646C243.785 186.369 260.06 184.711 276.664 187.678L278.272 187.979H278.273C284.986 189.297 292.617 191.628 300.541 195.595L300.58 195.614L300.62 195.634C311.628 200.853 323.306 209.16 333.735 222.302L336.204 225.412L339.397 223.052C348.39 216.405 358.607 214.815 367.68 218.083C368.939 218.557 370.496 219.269 372.217 220.327L372.294 220.374L372.373 220.418C377.556 223.299 384.005 228.859 388.757 240.612L388.761 240.621L388.764 240.63C393.78 252.881 395.571 269.076 393.247 288.522L393.235 288.624L393.229 288.726C391.756 309.906 387.636 341.593 375.616 374.394L375.613 374.402L375.609 374.412C362.723 410.108 344.061 437.991 320.019 458.255C290.801 482.531 253.979 495.057 210.174 495.057H210.136L208.603 495.05C200.903 494.983 192.68 494.42 184.398 493.593H184.397L183.308 493.478H183.3C167.849 491.832 153.413 488.523 139.989 483.581L138.693 483.098L138.688 483.096L137.159 482.512C72.6737 457.518 39.6026 397.328 22.6318 332.461C6.60955 271.219 5.18302 206.693 4.84473 165.902L4.78809 158.069L4.78418 157.503V157.502C4.77568 156.262 4.77344 155.015 4.7793 153.763L4.78027 153.742L4.7793 153.723C4.69723 136.868 6.07061 122.34 8.62988 110.329L8.88086 109.175L8.88379 109.164C11.488 97.3119 15.1929 88.0445 19.8613 81.1807C27.2537 70.5204 36.5408 65.0656 48.1797 64.5312C48.7047 64.516 49.2301 64.513 49.7549 64.5225L49.8145 64.5234L49.875 64.5225C57.8165 64.4343 65.8629 67.6026 71.5088 72.9463L72.0479 73.4707C79.0051 80.4214 82.403 90.7219 81.8389 104.529L81.8379 104.54V104.551C81.5397 112.891 81.2412 123.629 81.2412 136.16L89.335 137.163C101.167 90.176 114.711 53.7974 128.99 29.0342C140.988 9.89446 153.22 4.84311 163.199 4.94336L163.241 4.94434L163.282 4.94336ZM303.233 288.81C293.913 267.249 271.672 254.603 249.003 256.937L248.841 256.953L248.68 256.982C246.306 257.419 243.916 258.062 241.526 258.938L240.502 259.327C226.099 264.96 217.05 272.912 211.442 281.621C205.869 290.279 203.891 299.382 203.11 307.022L203.106 307.062C202.142 317.494 206.067 332.712 215.581 345.016L215.715 345.188L215.867 345.347C220.57 350.249 226.266 354.359 232.732 357.453L233.361 357.75C247.022 364.098 262.415 365.12 275.722 360.257L275.721 360.256C288.244 355.773 298.122 349.486 305.305 340.98C312.506 332.452 316.771 321.962 318.491 309.467L318.88 306.64L316.367 305.288C309.779 301.744 305.58 295.288 303.74 290.036L303.706 289.938L303.667 289.843L303.233 288.81Z" stroke="#E2FFEC" stroke-opacity="0.22" stroke-width="8.21856"/>
</svg>
