<svg width="41" height="41" viewBox="0 0 41 41" fill="none" xmlns="http://www.w3.org/2000/svg">
<path fill-rule="evenodd" clip-rule="evenodd" d="M31.7651 17.8284C32.1675 18.0491 32.6444 18.4663 32.9909 19.3094C33.3542 20.1822 33.4801 21.3148 33.3286 22.6479C33.2373 24.08 32.9711 26.2289 32.1679 28.4605C31.3062 30.8912 30.0434 32.8073 28.3996 34.2086C26.3991 35.8903 23.8764 36.7598 20.8911 36.777C20.8907 36.777 20.8915 36.777 20.8911 36.777C20.8906 36.777 20.889 36.777 20.8886 36.777C20.3321 36.7802 19.7357 36.7439 19.1391 36.6878C19.114 36.6853 19.0889 36.6828 19.0638 36.6803C17.9749 36.5706 16.956 36.3393 16.0081 35.9874C6.97974 32.6513 6.81381 19.3907 6.74691 14.044L6.74643 14.0062C6.74537 13.9222 6.74478 13.8377 6.74468 13.7528C6.73215 12.5739 6.82546 11.5542 7.00807 10.7104C7.18249 9.89418 7.43744 9.23656 7.77291 8.73755C8.30581 7.95903 8.99997 7.53748 9.87544 7.49268C9.91592 7.49122 9.95641 7.49074 9.99686 7.49124C10.618 7.48075 11.2467 7.73137 11.6812 8.16045C12.2209 8.6934 12.4638 9.46632 12.4297 10.4394C12.413 10.9954 12.3972 11.7102 12.402 12.5441C13.1788 9.38279 14.0788 6.91567 15.0428 5.22251C15.8751 3.87496 16.7716 3.459 17.5599 3.46239C17.9426 3.45634 18.3363 3.54929 18.7305 3.74339C19.1298 3.9598 19.4103 4.27632 19.5721 4.73271C19.6092 4.84165 19.6388 4.95618 19.6611 5.07744C19.8729 6.17687 19.4514 7.61918 19.1563 8.61375C19.1339 8.69 19.1109 8.76851 19.0873 8.84921C19.0358 9.03851 18.9805 9.23884 18.9227 9.44861C18.8102 9.85649 18.6879 10.3 18.5645 10.7675C20.0444 9.01345 22.1726 6.7074 24.6044 5.62409C25.1266 5.38707 26.0885 5.1666 26.9232 5.48212C27.3539 5.63269 27.7055 5.90486 27.9601 6.27506C28.3616 6.88913 28.5049 7.56434 28.3296 8.24138C28.174 8.85866 27.7597 9.49731 27.1063 10.0976C26.4728 10.6778 25.0284 12.1575 23.6052 13.8558C23.0049 14.5573 22.4941 15.2404 22.0386 15.8713C23.0035 15.5574 24.1799 15.4377 25.3777 15.6659C25.8487 15.7555 26.384 15.9157 26.9403 16.1902C27.7138 16.5515 28.5327 17.1279 29.2636 18.0382C29.9285 17.5408 30.7069 17.4069 31.4109 17.6563C31.5108 17.6931 31.6322 17.7477 31.7651 17.8284ZM23.4247 20.8329C24.8444 20.6785 26.2437 21.4784 26.8102 22.8449C26.9516 23.2412 27.2724 23.7357 27.7907 24.0107C27.5813 25.6002 26.7325 26.6177 25.1261 27.2027C24.3131 27.5052 23.3588 27.4511 22.502 27.059C22.0808 26.8662 21.712 26.6059 21.4099 26.2946C20.8077 25.525 20.5643 24.5765 20.6182 23.9538C20.7121 22.979 21.1028 21.7042 22.9297 20.9779C23.0951 20.9115 23.2605 20.8641 23.4247 20.8329Z" fill="#59BEFC"/>
</svg>
