<svg width="41" height="41" viewBox="0 0 41 41" fill="none" xmlns="http://www.w3.org/2000/svg">
<path fill-rule="evenodd" clip-rule="evenodd" d="M31.6759 17.7984C32.0768 18.0216 32.5511 18.4419 32.8923 19.2871C33.25 20.1621 33.3688 21.2955 33.2089 22.6276C33.1086 24.0591 32.8287 26.2063 32.0115 28.4328C31.1345 30.858 29.8597 32.7661 28.207 34.157C26.1959 35.826 23.6678 36.6796 20.6825 36.678C20.6821 36.678 20.6829 36.678 20.6825 36.678C20.682 36.678 20.6804 36.678 20.6799 36.678C20.1235 36.6777 19.5273 36.6376 18.9311 36.5777C18.906 36.5751 18.8809 36.5725 18.8558 36.5697C17.7676 36.4532 16.7502 36.2154 15.8045 35.8576C6.79742 32.4646 6.71516 19.2032 6.682 13.8562L6.68176 13.8184C6.68123 13.7344 6.68117 13.6499 6.68161 13.565C6.67652 12.3861 6.77626 11.367 6.96419 10.5243C7.14376 9.7092 7.40285 9.05321 7.74147 8.55632C8.27926 7.78118 8.97607 7.36402 9.8518 7.32474C9.8923 7.32353 9.93279 7.32331 9.97323 7.32406C10.5944 7.3175 11.2216 7.57208 11.6533 8.00389C12.1896 8.54024 12.4277 9.31467 12.3874 10.2875C12.3672 10.8434 12.3469 11.5581 12.3465 12.392C13.1431 9.23565 14.0587 6.77427 15.0334 5.08722C15.8742 3.74495 16.7733 3.33466 17.5615 3.34302C17.9443 3.33938 18.3373 3.43482 18.7303 3.6314C19.1283 3.85033 19.4067 4.16861 19.5657 4.62601C19.6021 4.73518 19.631 4.8499 19.6525 4.97129C19.8574 6.07204 19.4268 7.51166 19.1254 8.50435C19.1025 8.58045 19.079 8.65882 19.0549 8.73937C19.0022 8.92834 18.9457 9.12832 18.8865 9.33771C18.7715 9.74488 18.6463 10.1877 18.52 10.6543C20.011 8.90964 22.1537 6.61707 24.5923 5.54913C25.116 5.3154 26.0792 5.10101 26.9119 5.42178C27.3416 5.57507 27.6915 5.84945 27.9437 6.22126C28.3415 6.83785 28.4804 7.51395 28.3009 8.18987C28.1413 8.80615 27.723 9.44218 27.0659 10.0383C26.4287 10.6146 24.975 12.0851 23.5411 13.7744C22.9364 14.4721 22.4214 15.1519 21.9619 15.78C22.9287 15.4721 24.1059 15.3598 25.3022 15.5956C25.7726 15.6882 26.3069 15.8518 26.8615 16.1298C27.6327 16.496 28.4479 17.0775 29.1731 17.9924C29.841 17.4992 30.6203 17.3702 31.3227 17.624C31.4223 17.6614 31.5435 17.7169 31.6759 17.7984ZM23.3167 20.7502C24.7372 20.6047 26.1315 21.4135 26.6893 22.7835C26.8282 23.1807 27.1459 23.6772 27.6625 23.9554C27.443 25.5436 26.5879 26.5557 24.9778 27.1306C24.1629 27.4279 23.209 27.3679 22.3546 26.9703C21.9346 26.7749 21.5675 26.5123 21.2674 26.1991C20.67 25.4256 20.4327 24.4757 20.4905 23.8533C20.5906 22.8791 20.9893 21.6068 22.8207 20.8921C22.9865 20.8267 23.1523 20.7803 23.3167 20.7502Z" fill="#5EFF95"/>
</svg>
